# xmcd
#
# Track frame offsets: 
#        150
#        11965
#        24687
#        38995
#        53712
#        67737
#        81462
#        93237
#        106287
#        120462
#        133840
#        144685
#        158785
#        170110
#        182785
#        195835
#        208360
#        220735
#        233185
#        247360
#
# Disc length: 3442 seconds
#
# Revision: 3
# Processed by: cddbd v1.5.2PL0 Copyright (c) Steve Scherf et al.
# Submitted via: ExactAudioCopy v1.1
#
DISCID=290d7014
DTITLE=Gene Autry - The Essential Gene Autry - Disc 1
DYEAR=2005
DGENRE=Country
TTITLE0=Back In The Saddle Again (mono)
TTITLE1=South Of The Border (Down Mexico Way) (mono)
TTITLE2=The Life Of Jimmie Rodgers (mono)
TTITLE3=Tumbling Tumbleweeds (mono)
TTITLE4=The Convict's Dream (mono)
TTITLE5=Dallas County Jail Blues (mono)
TTITLE6=Dear Old Western Skies (mono)
TTITLE7=The Yellow Rose Of Texas (mono)
TTITLE8=Mexicali Rose (mono)
TTITLE9=T.B. Blues (mono)
TTITLE10=I'm Thinking Tonight Of My Blue Eyes (mono)
TTITLE11=Amapola (Pretty Little Poppy) (mono)
TTITLE12=Listen To The Rhythm Of The Range (mono)
TTITLE13=That Silver-Haired Daddy Of Mine (mono)
TTITLE14=When It's Springtime In The Rockies (mono)
TTITLE15=Be Honest With Me (mono)
TTITLE16=It Makes No Difference Now (mono)
TTITLE17=Deep In The Heart Of Texas (mono)
TTITLE18=Take Me Back To My Boots And Saddle (mono)
TTITLE19=You Are My Sunshine (mono)
EXTD=Orvon Gene Autry (1907-09-29/1998-10-02): vocals, guitar\n2CD: Co
EXTD=lumbia/Legacy C2K 63779 (2005-01-11), UPC 074646377925.
EXTT0=
EXTT1=
EXTT2=
EXTT3=
EXTT4=
EXTT5=
EXTT6=
EXTT7=
EXTT8=
EXTT9=
EXTT10=
EXTT11=
EXTT12=
EXTT13=
EXTT14=
EXTT15=
EXTT16=
EXTT17=
EXTT18=
EXTT19=
PLAYORDER=
